<svg width="16" height="16" viewBox="0 0 16 16" fill="none" xmlns="http://www.w3.org/2000/svg">
<path d="M0.339267 7.90452C0.338894 9.24883 0.69015 10.5615 1.35806 11.7184L0.275391 15.6714L4.32079 14.6107C5.43969 15.2198 6.69334 15.539 7.9673 15.5391H7.97065C12.1762 15.5391 15.5997 12.1169 15.6015 7.91054C15.6023 5.87227 14.8092 3.95562 13.3684 2.51364C11.9277 1.07178 10.0118 0.277297 7.97034 0.276367C3.76426 0.276367 0.341065 3.69838 0.339329 7.90452" fill="url(#paint0_linear_2145_2863)"/>
<path d="M0.0663566 7.90177C0.0659225 9.29445 0.429767 10.654 1.12149 11.8524L0 15.9471L4.19045 14.8484C5.34505 15.4779 6.64502 15.8098 7.96781 15.8103H7.97122C12.3277 15.8103 15.8741 12.265 15.876 7.90809C15.8767 5.79659 15.0551 3.81104 13.5628 2.3174C12.0703 0.823938 10.0858 0.000868217 7.97122 0C3.61402 0 0.068093 3.54481 0.0663566 7.90177ZM2.56192 11.646L2.40546 11.3976C1.74772 10.3518 1.40056 9.14326 1.40105 7.90226C1.40242 4.28087 4.34964 1.33457 7.97371 1.33457C9.72874 1.33532 11.3781 2.01947 12.6187 3.26078C13.8592 4.5022 14.5418 6.15243 14.5413 7.9076C14.5397 11.529 11.5924 14.4757 7.97122 14.4757H7.96862C6.78952 14.475 5.63312 14.1584 4.62462 13.56L4.38462 13.4177L1.89792 14.0696L2.56192 11.646Z" fill="url(#paint1_linear_2145_2863)"/>
<path d="M5.99601 4.59782C5.84804 4.26895 5.69232 4.26232 5.55161 4.25655C5.43638 4.25159 5.30466 4.25196 5.17306 4.25196C5.04134 4.25196 4.82733 4.30151 4.64643 4.49903C4.46534 4.69673 3.95508 5.1745 3.95508 6.14622C3.95508 7.11794 4.66286 8.05711 4.76153 8.18901C4.86032 8.32067 6.12791 10.3786 8.13548 11.1703C9.80395 11.8282 10.1435 11.6974 10.5056 11.6644C10.8678 11.6315 11.6742 11.1867 11.8387 10.7255C12.0034 10.2644 12.0034 9.86908 11.954 9.78647C11.9047 9.70418 11.7729 9.65475 11.5754 9.55602C11.3779 9.45729 10.4068 8.9794 10.2258 8.91348C10.0447 8.84762 9.91303 8.81475 9.78131 9.01252C9.64959 9.20998 9.27136 9.65475 9.15607 9.78647C9.04091 9.9185 8.92562 9.93494 8.72816 9.83615C8.53052 9.73704 7.89443 9.52873 7.13976 8.85593C6.5526 8.33239 6.15619 7.68588 6.04097 7.48811C5.92574 7.29066 6.02863 7.18362 6.12767 7.0852C6.21641 6.9967 6.32525 6.85456 6.4241 6.73928C6.52258 6.62393 6.55545 6.54163 6.62131 6.40991C6.68723 6.27807 6.65424 6.16272 6.60494 6.06393C6.55545 5.96514 6.17164 4.98833 5.99601 4.59782Z" fill="white"/>
<defs>
<linearGradient id="paint0_linear_2145_2863" x1="766.579" y1="1539.78" x2="766.579" y2="0.276367" gradientUnits="userSpaceOnUse">
<stop stop-color="#1FAF38"/>
<stop offset="1" stop-color="#60D669"/>
</linearGradient>
<linearGradient id="paint1_linear_2145_2863" x1="793.798" y1="1594.71" x2="793.798" y2="0" gradientUnits="userSpaceOnUse">
<stop stop-color="#B4B4B4"/>
<stop offset="1" stop-color="#F9F9F9"/>
</linearGradient>
</defs>
</svg>
