<svg width="38" height="44" viewBox="0 0 38 44" fill="none" xmlns="http://www.w3.org/2000/svg">
<path fill-rule="evenodd" clip-rule="evenodd" d="M17.166 0.927263C16.2967 1.43642 15.5439 1.88639 15.4932 1.92725C15.4424 1.96802 15.3041 2.05837 15.1858 2.12798C15.0675 2.19759 14.3978 2.59094 13.6975 3.00219C12.9972 3.41334 12.1872 3.89811 11.8974 4.07944C11.6076 4.26076 11.2915 4.45588 11.1949 4.51302C11.0983 4.57008 10.4859 4.93246 9.83387 5.31816C9.18188 5.70386 8.54965 6.07674 8.42891 6.14679C8.30817 6.21676 8.18963 6.29411 8.16548 6.31859C8.14133 6.34307 8.01374 6.42318 7.88185 6.49662C7.75005 6.57006 6.76657 7.15087 5.69634 7.78733C3.15344 9.29959 3.20771 9.2671 2.54562 9.67327C2.2317 9.8659 1.53053 10.2814 0.987426 10.5966L0 11.1699L0.0215131 22.0178L0.0430269 32.8657L1.22847 33.5629C1.88046 33.9464 2.46334 34.2621 2.52367 34.2646C2.58408 34.267 2.63343 34.3091 2.63343 34.3581C2.63343 34.407 2.67145 34.4471 2.7179 34.4471C2.78578 34.4471 4.90157 35.6621 6.36036 36.5389C7.36561 37.1431 9.38912 38.352 9.69329 38.53C9.89139 38.646 10.1522 38.8095 10.2729 38.8934C10.4605 39.0239 11.8621 39.854 13.1143 40.5764C13.3143 40.6917 13.6163 40.8779 13.7853 40.9902C13.9544 41.1024 14.5668 41.4734 15.1464 41.8145C15.7259 42.1556 16.7155 42.7504 17.3453 43.1364C17.9752 43.5224 18.5893 43.8904 18.7101 43.9545C18.9147 44.063 19.013 44.021 20.1553 43.3375C20.8294 42.9341 22.1515 42.1462 23.0932 41.5865C24.035 41.0269 24.845 40.5377 24.8933 40.4995C24.9416 40.4613 25.1194 40.3507 25.2885 40.2537C25.4575 40.1567 26.5244 39.5261 27.6594 38.8523C29.5843 37.7096 29.9336 37.504 30.4792 37.1927C30.5945 37.1269 30.7086 37.053 30.7327 37.0285C30.7569 37.004 30.8754 36.9268 30.9962 36.8567C31.396 36.6249 34.6953 34.6723 34.9334 34.5266C35.0619 34.4479 35.3287 34.2877 35.5262 34.1705C35.7237 34.0534 36.2868 33.7181 36.7775 33.4254L37.6697 32.8933V22.0093C37.6697 15.3708 37.6379 11.1254 37.5882 11.1254C37.5434 11.1254 37.4529 11.0753 37.3872 11.0141C37.3216 10.9529 37.1705 10.8459 37.0516 10.7764C36.9328 10.7069 36.3021 10.3316 35.6501 9.94236C34.9981 9.5531 34.3461 9.16544 34.2012 9.08088C33.8382 8.86903 31.6228 7.53773 30.8205 7.04931C30.4583 6.82882 29.4507 6.22922 28.5814 5.71685C27.712 5.20458 26.8625 4.6931 26.6934 4.58032C26.5244 4.46754 26.2244 4.28177 26.0267 4.16747C25.6909 3.97333 22.7428 2.21797 22.0898 1.82337C20.6078 0.927708 18.9664 -0.00115611 18.8678 1.08011e-06C18.8011 0.000802208 18.0354 0.418012 17.166 0.927263ZM20.1955 2.89421C20.7509 3.22561 21.3238 3.56671 21.4687 3.65217C21.6136 3.73771 22.5027 4.26556 23.4445 4.82529C24.3862 5.38501 25.2556 5.89987 25.3763 5.96948C25.497 6.03909 25.6156 6.11608 25.6397 6.14056C25.6639 6.16504 25.7779 6.23892 25.8932 6.3047C26.0085 6.37049 26.2456 6.50748 26.4201 6.60904C26.5946 6.71061 26.9942 6.93288 27.3081 7.10307C27.622 7.27327 27.8986 7.43679 27.9228 7.46643C27.9469 7.49607 28.0655 7.57716 28.1862 7.64668C28.4544 7.80103 30.6569 9.11524 31.0877 9.37792C32.4565 10.2126 32.8836 10.4753 33.0603 10.5913C33.1723 10.6647 33.4944 10.8597 33.7764 11.0247C34.0584 11.1895 34.6143 11.53 35.0117 11.7813L35.7345 12.238L35.7362 22.0417L35.7379 31.8454L35.1013 32.2325C34.7511 32.4453 34.3856 32.6641 34.289 32.7187C34.1924 32.7732 33.6439 33.1042 33.0701 33.4544C32.4961 33.8046 31.9924 34.091 31.9505 34.091C31.9085 34.091 31.8739 34.121 31.8736 34.1578C31.8732 34.1946 31.7843 34.2682 31.676 34.3216C31.5677 34.3749 30.5505 34.9701 29.4156 35.6443C26.958 37.104 26.8499 37.1677 26.3422 37.4562C26.1249 37.5798 25.8483 37.7506 25.7275 37.836C25.6068 37.9212 24.7016 38.4655 23.7158 39.0453C22.7301 39.6251 21.7818 40.1842 21.6084 40.2876C21.435 40.391 20.7556 40.7956 20.0987 41.1865L18.9043 41.8974L17.8259 41.2432C17.2328 40.8835 16.7133 40.5891 16.6714 40.5891C16.6295 40.5891 16.5949 40.5591 16.5946 40.5223C16.5942 40.4856 16.5053 40.4122 16.397 40.3592C16.2887 40.3062 15.6469 39.9308 14.9708 39.5251C14.2946 39.1194 13.6031 38.7079 13.4341 38.6106C13.2651 38.5134 13.0872 38.4025 13.0389 38.3643C12.8739 38.2337 2.75329 32.2388 2.26024 31.9796L2.01876 31.8527V22.0434V12.2341L3.57739 11.2915C4.4346 10.773 5.32727 10.2332 5.56111 10.0917C5.79486 9.95037 6.09122 9.77003 6.21969 9.69107C6.40488 9.57714 8.70823 8.20391 10.229 7.30077C10.3739 7.2147 11.3223 6.63272 12.3365 6.00749C13.9656 5.00314 16.1409 3.6843 16.7709 3.31917C16.8916 3.24911 17.4053 2.94059 17.9124 2.63349C18.7156 2.14703 18.8571 2.08908 19.01 2.18343C19.1066 2.24298 19.6401 2.5629 20.1955 2.89421ZM18.6048 6.92869C18.4896 7.01949 17.6928 7.51022 16.8341 8.01912C15.1683 9.00647 15.1484 9.0183 13.7992 9.83465C13.3138 10.1284 12.055 10.884 11.002 11.5138C9.94899 12.1436 8.61331 12.9523 8.03376 13.3109C7.45422 13.6696 6.75121 14.0956 6.47144 14.2577C6.18676 14.4226 5.94414 14.6308 5.92043 14.7304C5.89708 14.8284 5.88891 18.2315 5.90217 22.2928L5.92632 29.6772L6.54099 30.055C7.32777 30.5387 7.24347 30.4881 9.23527 31.6738C10.1682 32.2291 11.7218 33.1615 12.6877 33.7455C13.6536 34.3295 14.5032 34.833 14.5756 34.8642C14.6481 34.8956 14.8061 34.9903 14.9269 35.0748C15.0476 35.1593 16.0099 35.7361 17.0654 36.3565C18.7714 37.3593 19.0004 37.4704 19.1289 37.3572C19.2084 37.2871 19.313 37.2146 19.3613 37.1959C19.4096 37.1773 19.943 36.8663 20.5467 36.5049C23.6012 34.6763 24.4897 34.1324 24.8716 33.8574C25.1011 33.6922 25.3124 33.557 25.341 33.557C25.3696 33.557 25.498 33.4825 25.6262 33.3917C25.8279 33.2485 28.6152 31.61 29.7668 30.9576C30.5089 30.5371 30.7768 30.379 31.3474 30.0244L31.9182 29.6699V22.1654C31.9182 14.8107 31.9147 14.6589 31.7465 14.5621C31.652 14.5078 31.2569 14.2612 30.8684 14.014C30.4798 13.7667 29.9305 13.4262 29.6476 13.2573C29.3647 13.0884 29.0418 12.8901 28.9301 12.8166C28.8183 12.7432 28.3385 12.4502 27.8639 12.1658C27.3892 11.8812 26.823 11.5363 26.6056 11.3994C26.1863 11.1353 25.119 10.4888 23.181 9.32505C22.529 8.93356 21.8922 8.5476 21.7657 8.46731C21.6393 8.3871 21.2836 8.16902 20.9754 7.9828C20.6672 7.79649 20.0989 7.44783 19.7125 7.20784C19.3262 6.96786 18.966 6.7698 18.9121 6.76758C18.8583 6.76544 18.72 6.8379 18.6048 6.92869ZM20.2693 8.67747C21.0102 9.11809 21.745 9.55871 21.9021 9.65663C22.0592 9.75454 22.9151 10.2675 23.804 10.7965C24.6929 11.3256 25.7956 11.9948 26.2544 12.2837C26.7132 12.5726 27.214 12.8808 27.3672 12.9686C28.1255 13.403 29.3222 14.1191 29.6351 14.3258C29.8283 14.4534 30.095 14.6135 30.2278 14.6815C30.6173 14.8808 30.7955 14.7385 28.1862 16.311C27.5342 16.7039 26.8625 17.1045 26.6934 17.2013C26.5244 17.2981 26.2873 17.4459 26.1666 17.5299C26.0458 17.6139 25.5771 17.8996 25.1251 18.1649C24.6729 18.43 24.1753 18.7272 24.0192 18.8251C23.8631 18.923 22.9956 19.4437 22.0916 19.9823C21.1876 20.5208 20.3812 21.0019 20.2997 21.0513C20.2182 21.1008 19.8686 21.3136 19.5228 21.5242L18.8939 21.907L17.8105 21.2327C17.2145 20.8617 16.6282 20.5096 16.5075 20.4501C16.3867 20.3906 16.2682 20.3212 16.244 20.2956C16.2199 20.2702 16.1058 20.1955 15.9905 20.1297C15.5318 19.8679 15.1863 19.6633 14.0488 18.9804C12.1325 17.8299 11.4974 17.4432 10.7998 17.0021C10.4376 16.773 9.77302 16.3685 9.32299 16.1031C8.87305 15.8377 8.35936 15.5285 8.18146 15.4158C8.00364 15.3032 7.74952 15.1642 7.61666 15.1071C7.4839 15.0498 7.37598 14.9817 7.37694 14.9557C7.37905 14.8978 9.04332 13.8512 10.4925 12.9965C11.8958 12.1689 14.1239 10.8142 14.6634 10.4606C14.8325 10.3499 15.3067 10.0389 15.7172 9.76967C16.1277 9.50049 16.7402 9.1123 17.0782 8.90721C17.4163 8.70204 17.93 8.37945 18.2198 8.19038C18.5095 8.00132 18.7861 7.85328 18.8344 7.86147C18.8827 7.86966 19.5284 8.23685 20.2693 8.67747ZM30.9083 22.3981C30.9083 29.6778 30.9472 29.1156 30.4254 29.379C30.3288 29.4278 29.985 29.6367 29.6614 29.8433C28.9565 30.2934 27.3573 31.2802 26.3861 31.8645C25.9997 32.0969 25.249 32.5582 24.7177 32.8896C23.0794 33.9113 22.188 34.4583 21.7761 34.6946C21.5587 34.8193 21.2229 35.0166 21.0297 35.1332C20.8365 35.2497 20.6092 35.368 20.5248 35.3961C20.4403 35.4241 20.3711 35.4824 20.3711 35.5257C20.3711 35.5689 20.3295 35.6043 20.2786 35.6043C20.2278 35.6043 20.0408 35.7044 19.8631 35.8268C19.6854 35.9492 19.4897 36.0494 19.4281 36.0494C19.3383 36.0494 19.3207 34.739 19.3388 29.3971L19.3613 22.7448L20.7223 21.9265C22.5561 20.8239 23.5861 20.2001 23.9641 19.9631C24.1371 19.8546 24.5158 19.6217 24.8055 19.4453C25.0953 19.269 25.7868 18.8421 26.3422 18.4965C26.8976 18.1511 27.7274 17.6445 28.1862 17.3709C28.645 17.0973 29.0336 16.8419 29.0497 16.8033C29.0658 16.7648 29.11 16.7333 29.148 16.7333C29.1859 16.7333 29.5679 16.516 29.9968 16.2504C30.4257 15.9847 30.8062 15.7644 30.8425 15.7608C30.8788 15.7571 30.9083 18.7439 30.9083 22.3981ZM8.05677 16.4921C8.11771 16.5397 8.28472 16.6436 8.42794 16.7228C8.57116 16.802 9.11093 17.1271 9.62752 17.4454C10.1441 17.7636 10.6686 18.0851 10.793 18.1598C11.1779 18.391 13.2062 19.6186 13.3609 19.714C13.4413 19.7637 13.876 20.0226 14.3268 20.2895C14.7776 20.5563 15.4032 20.9403 15.7172 21.1426C16.2879 21.5107 17.7256 22.3719 18.1346 22.5908L18.3515 22.7069V29.3834C18.3515 34.7026 18.3292 36.0456 18.2417 35.9899C18.1814 35.9514 17.5195 35.5483 16.7709 35.0941C16.0223 34.6399 15.3506 34.2274 15.2781 34.1774C15.2057 34.1274 14.7117 33.8221 14.1805 33.4989C13.6492 33.1758 12.945 32.7462 12.6154 32.5443C12.2859 32.3424 11.95 32.1367 11.8691 32.0873C11.7881 32.0378 11.4324 31.8175 11.0787 31.5978C10.725 31.3779 10.3298 31.1342 10.2006 31.056C9.40167 30.573 7.54264 29.4097 7.26542 29.2192L6.93613 28.993V22.4116V15.83L7.44104 16.1177C7.7187 16.276 7.99583 16.4444 8.05677 16.4921Z" fill="#222222"/>
</svg>
